<mxfile host="Electron" modified="2023-04-25T02:02:12.069Z" agent="Mozilla/5.0 (Windows NT 10.0; Win64; x64) AppleWebKit/537.36 (KHTML, like Gecko) draw.io/21.1.2 Chrome/106.0.5249.199 Electron/21.4.3 Safari/537.36" etag="Iba7cRr7q4cYhPKiCFmU" version="21.1.2" type="device">
  <diagram name="Page-1" id="i9jTM71WfbxWR5w5Q5TD">
    <mxGraphModel dx="1111" dy="707" grid="1" gridSize="10" guides="1" tooltips="1" connect="1" arrows="1" fold="1" page="1" pageScale="1" pageWidth="850" pageHeight="1100" math="0" shadow="0">
      <root>
        <mxCell id="0" />
        <mxCell id="1" parent="0" />
        <mxCell id="i2wbqCgmHk2RyDlgVT_B-1" value="&lt;b&gt;&lt;font style=&quot;font-size: 14px;&quot;&gt;Payroll management Systym&lt;/font&gt;&lt;/b&gt;" style="rounded=1;whiteSpace=wrap;html=1;" parent="1" vertex="1">
          <mxGeometry x="310" y="40" width="160" height="40" as="geometry" />
        </mxCell>
        <mxCell id="i2wbqCgmHk2RyDlgVT_B-2" value="" style="endArrow=none;html=1;rounded=0;entryX=0.5;entryY=1;entryDx=0;entryDy=0;" parent="1" target="i2wbqCgmHk2RyDlgVT_B-1" edge="1">
          <mxGeometry width="50" height="50" relative="1" as="geometry">
            <mxPoint x="390" y="120" as="sourcePoint" />
            <mxPoint x="430" y="230" as="targetPoint" />
          </mxGeometry>
        </mxCell>
        <mxCell id="i2wbqCgmHk2RyDlgVT_B-3" value="" style="endArrow=none;html=1;rounded=0;" parent="1" edge="1">
          <mxGeometry width="50" height="50" relative="1" as="geometry">
            <mxPoint x="80" y="120" as="sourcePoint" />
            <mxPoint x="720" y="120" as="targetPoint" />
          </mxGeometry>
        </mxCell>
        <mxCell id="i2wbqCgmHk2RyDlgVT_B-4" value="&lt;b&gt;1.0&lt;br&gt;Management Employee Data&lt;/b&gt;" style="rounded=1;whiteSpace=wrap;html=1;" parent="1" vertex="1">
          <mxGeometry x="20" y="150" width="120" height="50" as="geometry" />
        </mxCell>
        <mxCell id="i2wbqCgmHk2RyDlgVT_B-5" value="" style="endArrow=none;html=1;rounded=0;exitX=0.5;exitY=0;exitDx=0;exitDy=0;" parent="1" source="i2wbqCgmHk2RyDlgVT_B-4" edge="1">
          <mxGeometry width="50" height="50" relative="1" as="geometry">
            <mxPoint x="380" y="280" as="sourcePoint" />
            <mxPoint x="80" y="120" as="targetPoint" />
          </mxGeometry>
        </mxCell>
        <mxCell id="i2wbqCgmHk2RyDlgVT_B-6" value="" style="endArrow=none;html=1;rounded=0;entryX=0.5;entryY=1;entryDx=0;entryDy=0;" parent="1" target="i2wbqCgmHk2RyDlgVT_B-4" edge="1">
          <mxGeometry width="50" height="50" relative="1" as="geometry">
            <mxPoint x="80" y="650" as="sourcePoint" />
            <mxPoint x="430" y="230" as="targetPoint" />
          </mxGeometry>
        </mxCell>
        <mxCell id="i2wbqCgmHk2RyDlgVT_B-7" value="1.1&lt;br&gt;Add Employee&lt;br&gt;Data" style="rounded=1;whiteSpace=wrap;html=1;" parent="1" vertex="1">
          <mxGeometry x="120" y="220" width="90" height="50" as="geometry" />
        </mxCell>
        <mxCell id="i2wbqCgmHk2RyDlgVT_B-8" value="" style="endArrow=none;html=1;rounded=0;entryX=0;entryY=0.5;entryDx=0;entryDy=0;" parent="1" target="i2wbqCgmHk2RyDlgVT_B-7" edge="1">
          <mxGeometry width="50" height="50" relative="1" as="geometry">
            <mxPoint x="80" y="245" as="sourcePoint" />
            <mxPoint x="450" y="250" as="targetPoint" />
          </mxGeometry>
        </mxCell>
        <mxCell id="i2wbqCgmHk2RyDlgVT_B-9" value="1.2&lt;br&gt;&amp;nbsp;Employee&lt;br&gt;Data Update" style="rounded=1;whiteSpace=wrap;html=1;" parent="1" vertex="1">
          <mxGeometry x="120" y="300" width="90" height="50" as="geometry" />
        </mxCell>
        <mxCell id="i2wbqCgmHk2RyDlgVT_B-10" value="" style="endArrow=none;html=1;rounded=0;entryX=0;entryY=0.5;entryDx=0;entryDy=0;" parent="1" target="i2wbqCgmHk2RyDlgVT_B-9" edge="1">
          <mxGeometry width="50" height="50" relative="1" as="geometry">
            <mxPoint x="80" y="325" as="sourcePoint" />
            <mxPoint x="450" y="250" as="targetPoint" />
          </mxGeometry>
        </mxCell>
        <mxCell id="i2wbqCgmHk2RyDlgVT_B-12" value="1.3&lt;br&gt;Employee&lt;br&gt;work hour" style="rounded=1;whiteSpace=wrap;html=1;" parent="1" vertex="1">
          <mxGeometry x="120" y="380" width="90" height="50" as="geometry" />
        </mxCell>
        <mxCell id="i2wbqCgmHk2RyDlgVT_B-13" value="" style="endArrow=none;html=1;rounded=0;entryX=0;entryY=0.5;entryDx=0;entryDy=0;" parent="1" target="i2wbqCgmHk2RyDlgVT_B-12" edge="1">
          <mxGeometry width="50" height="50" relative="1" as="geometry">
            <mxPoint x="80" y="405" as="sourcePoint" />
            <mxPoint x="450" y="250" as="targetPoint" />
          </mxGeometry>
        </mxCell>
        <mxCell id="i2wbqCgmHk2RyDlgVT_B-14" value="1.4&lt;br&gt;Approved Sick leaves&amp;nbsp;" style="rounded=1;whiteSpace=wrap;html=1;" parent="1" vertex="1">
          <mxGeometry x="120" y="460" width="90" height="50" as="geometry" />
        </mxCell>
        <mxCell id="i2wbqCgmHk2RyDlgVT_B-15" value="" style="endArrow=none;html=1;rounded=0;entryX=0;entryY=0.5;entryDx=0;entryDy=0;" parent="1" target="i2wbqCgmHk2RyDlgVT_B-14" edge="1">
          <mxGeometry width="50" height="50" relative="1" as="geometry">
            <mxPoint x="80" y="485" as="sourcePoint" />
            <mxPoint x="130" y="415" as="targetPoint" />
          </mxGeometry>
        </mxCell>
        <mxCell id="i2wbqCgmHk2RyDlgVT_B-16" value="1.5&lt;br&gt;Manage Employee BenefitsData&amp;nbsp;" style="rounded=1;whiteSpace=wrap;html=1;" parent="1" vertex="1">
          <mxGeometry x="120" y="540" width="90" height="60" as="geometry" />
        </mxCell>
        <mxCell id="i2wbqCgmHk2RyDlgVT_B-17" value="" style="endArrow=none;html=1;rounded=0;entryX=0;entryY=0.5;entryDx=0;entryDy=0;" parent="1" target="i2wbqCgmHk2RyDlgVT_B-16" edge="1">
          <mxGeometry width="50" height="50" relative="1" as="geometry">
            <mxPoint x="80" y="570" as="sourcePoint" />
            <mxPoint x="130" y="495" as="targetPoint" />
          </mxGeometry>
        </mxCell>
        <mxCell id="i2wbqCgmHk2RyDlgVT_B-18" value="1.6&lt;br&gt;Manage Employee Time sheet" style="rounded=1;whiteSpace=wrap;html=1;" parent="1" vertex="1">
          <mxGeometry x="120" y="620" width="90" height="60" as="geometry" />
        </mxCell>
        <mxCell id="i2wbqCgmHk2RyDlgVT_B-19" value="" style="endArrow=none;html=1;rounded=0;entryX=0;entryY=0.5;entryDx=0;entryDy=0;" parent="1" target="i2wbqCgmHk2RyDlgVT_B-18" edge="1">
          <mxGeometry width="50" height="50" relative="1" as="geometry">
            <mxPoint x="80" y="650" as="sourcePoint" />
            <mxPoint x="130" y="580" as="targetPoint" />
          </mxGeometry>
        </mxCell>
        <mxCell id="i2wbqCgmHk2RyDlgVT_B-20" value="&lt;b&gt;2.0&lt;br&gt;Calcuation Of Net Pay&lt;/b&gt;" style="rounded=1;whiteSpace=wrap;html=1;" parent="1" vertex="1">
          <mxGeometry x="330" y="160" width="120" height="50" as="geometry" />
        </mxCell>
        <mxCell id="i2wbqCgmHk2RyDlgVT_B-21" value="" style="endArrow=none;html=1;rounded=0;" parent="1" edge="1">
          <mxGeometry width="50" height="50" relative="1" as="geometry">
            <mxPoint x="390" y="160" as="sourcePoint" />
            <mxPoint x="390" y="120" as="targetPoint" />
          </mxGeometry>
        </mxCell>
        <mxCell id="i2wbqCgmHk2RyDlgVT_B-22" value="" style="endArrow=none;html=1;rounded=0;entryX=0.5;entryY=1;entryDx=0;entryDy=0;" parent="1" target="i2wbqCgmHk2RyDlgVT_B-20" edge="1">
          <mxGeometry width="50" height="50" relative="1" as="geometry">
            <mxPoint x="390" y="240" as="sourcePoint" />
            <mxPoint x="430" y="300" as="targetPoint" />
          </mxGeometry>
        </mxCell>
        <mxCell id="i2wbqCgmHk2RyDlgVT_B-23" value="" style="endArrow=none;html=1;rounded=0;" parent="1" edge="1">
          <mxGeometry width="50" height="50" relative="1" as="geometry">
            <mxPoint x="310" y="240" as="sourcePoint" />
            <mxPoint x="470" y="240" as="targetPoint" />
          </mxGeometry>
        </mxCell>
        <mxCell id="i2wbqCgmHk2RyDlgVT_B-24" value="2.1&lt;br&gt;Calcuation Of Gross&lt;br&gt;Pay" style="rounded=1;whiteSpace=wrap;html=1;" parent="1" vertex="1">
          <mxGeometry x="250" y="270" width="120" height="50" as="geometry" />
        </mxCell>
        <mxCell id="i2wbqCgmHk2RyDlgVT_B-25" value="2.2&lt;br&gt;Calcuation Of Deductions" style="rounded=1;whiteSpace=wrap;html=1;" parent="1" vertex="1">
          <mxGeometry x="420" y="270" width="120" height="50" as="geometry" />
        </mxCell>
        <mxCell id="i2wbqCgmHk2RyDlgVT_B-26" value="" style="endArrow=none;html=1;rounded=0;exitX=0.417;exitY=0.002;exitDx=0;exitDy=0;exitPerimeter=0;" parent="1" source="i2wbqCgmHk2RyDlgVT_B-25" edge="1">
          <mxGeometry width="50" height="50" relative="1" as="geometry">
            <mxPoint x="380" y="350" as="sourcePoint" />
            <mxPoint x="470" y="240" as="targetPoint" />
          </mxGeometry>
        </mxCell>
        <mxCell id="i2wbqCgmHk2RyDlgVT_B-27" value="" style="endArrow=none;html=1;rounded=0;exitX=0.5;exitY=0;exitDx=0;exitDy=0;" parent="1" source="i2wbqCgmHk2RyDlgVT_B-24" edge="1">
          <mxGeometry width="50" height="50" relative="1" as="geometry">
            <mxPoint x="380" y="350" as="sourcePoint" />
            <mxPoint x="310" y="240" as="targetPoint" />
          </mxGeometry>
        </mxCell>
        <mxCell id="i2wbqCgmHk2RyDlgVT_B-28" value="" style="endArrow=none;html=1;rounded=0;entryX=0.25;entryY=1;entryDx=0;entryDy=0;" parent="1" target="i2wbqCgmHk2RyDlgVT_B-24" edge="1">
          <mxGeometry width="50" height="50" relative="1" as="geometry">
            <mxPoint x="280" y="500" as="sourcePoint" />
            <mxPoint x="430" y="300" as="targetPoint" />
          </mxGeometry>
        </mxCell>
        <mxCell id="i2wbqCgmHk2RyDlgVT_B-29" value="2.1.1&lt;br&gt;&amp;nbsp;Count Working hour" style="rounded=1;whiteSpace=wrap;html=1;" parent="1" vertex="1">
          <mxGeometry x="320" y="330" width="90" height="50" as="geometry" />
        </mxCell>
        <mxCell id="i2wbqCgmHk2RyDlgVT_B-30" value="" style="endArrow=none;html=1;rounded=0;entryX=0;entryY=0.5;entryDx=0;entryDy=0;" parent="1" target="i2wbqCgmHk2RyDlgVT_B-29" edge="1">
          <mxGeometry width="50" height="50" relative="1" as="geometry">
            <mxPoint x="280" y="355" as="sourcePoint" />
            <mxPoint x="130" y="415" as="targetPoint" />
          </mxGeometry>
        </mxCell>
        <mxCell id="i2wbqCgmHk2RyDlgVT_B-31" value="2.1.2&lt;br&gt;&amp;nbsp;Count Sick leaves" style="rounded=1;whiteSpace=wrap;html=1;" parent="1" vertex="1">
          <mxGeometry x="320" y="400" width="90" height="50" as="geometry" />
        </mxCell>
        <mxCell id="i2wbqCgmHk2RyDlgVT_B-32" value="" style="endArrow=none;html=1;rounded=0;entryX=0;entryY=0.5;entryDx=0;entryDy=0;" parent="1" target="i2wbqCgmHk2RyDlgVT_B-31" edge="1">
          <mxGeometry width="50" height="50" relative="1" as="geometry">
            <mxPoint x="280" y="425" as="sourcePoint" />
            <mxPoint x="330" y="365" as="targetPoint" />
          </mxGeometry>
        </mxCell>
        <mxCell id="i2wbqCgmHk2RyDlgVT_B-33" value="2.1.3&lt;br&gt;&amp;nbsp;Count total incentive" style="rounded=1;whiteSpace=wrap;html=1;" parent="1" vertex="1">
          <mxGeometry x="320" y="470" width="90" height="50" as="geometry" />
        </mxCell>
        <mxCell id="i2wbqCgmHk2RyDlgVT_B-34" value="" style="endArrow=none;html=1;rounded=0;entryX=0;entryY=0.5;entryDx=0;entryDy=0;" parent="1" target="i2wbqCgmHk2RyDlgVT_B-33" edge="1">
          <mxGeometry width="50" height="50" relative="1" as="geometry">
            <mxPoint x="280" y="495" as="sourcePoint" />
            <mxPoint x="330" y="435" as="targetPoint" />
          </mxGeometry>
        </mxCell>
        <mxCell id="i2wbqCgmHk2RyDlgVT_B-35" value="" style="endArrow=none;html=1;rounded=0;entryX=0.5;entryY=1;entryDx=0;entryDy=0;" parent="1" target="i2wbqCgmHk2RyDlgVT_B-25" edge="1">
          <mxGeometry width="50" height="50" relative="1" as="geometry">
            <mxPoint x="480" y="510" as="sourcePoint" />
            <mxPoint x="450" y="400" as="targetPoint" />
          </mxGeometry>
        </mxCell>
        <mxCell id="i2wbqCgmHk2RyDlgVT_B-36" value="2.2.1&lt;br&gt;&amp;nbsp;Count State Tax" style="rounded=1;whiteSpace=wrap;html=1;" parent="1" vertex="1">
          <mxGeometry x="520" y="330" width="90" height="50" as="geometry" />
        </mxCell>
        <mxCell id="i2wbqCgmHk2RyDlgVT_B-37" value="2.2.2&lt;br&gt;&amp;nbsp;Count Fedral Tax" style="rounded=1;whiteSpace=wrap;html=1;" parent="1" vertex="1">
          <mxGeometry x="520" y="400" width="90" height="50" as="geometry" />
        </mxCell>
        <mxCell id="i2wbqCgmHk2RyDlgVT_B-38" value="2.2.3&lt;br&gt;&amp;nbsp;Count Total Tax" style="rounded=1;whiteSpace=wrap;html=1;" parent="1" vertex="1">
          <mxGeometry x="520" y="470" width="90" height="50" as="geometry" />
        </mxCell>
        <mxCell id="i2wbqCgmHk2RyDlgVT_B-39" value="" style="endArrow=none;html=1;rounded=0;entryX=0;entryY=0.5;entryDx=0;entryDy=0;" parent="1" target="i2wbqCgmHk2RyDlgVT_B-36" edge="1">
          <mxGeometry width="50" height="50" relative="1" as="geometry">
            <mxPoint x="480" y="355" as="sourcePoint" />
            <mxPoint x="450" y="410" as="targetPoint" />
          </mxGeometry>
        </mxCell>
        <mxCell id="i2wbqCgmHk2RyDlgVT_B-40" value="" style="endArrow=none;html=1;rounded=0;entryX=0;entryY=0.75;entryDx=0;entryDy=0;" parent="1" target="i2wbqCgmHk2RyDlgVT_B-38" edge="1">
          <mxGeometry width="50" height="50" relative="1" as="geometry">
            <mxPoint x="480" y="508" as="sourcePoint" />
            <mxPoint x="530" y="365" as="targetPoint" />
          </mxGeometry>
        </mxCell>
        <mxCell id="i2wbqCgmHk2RyDlgVT_B-41" value="" style="endArrow=none;html=1;rounded=0;entryX=0;entryY=0.5;entryDx=0;entryDy=0;" parent="1" target="i2wbqCgmHk2RyDlgVT_B-37" edge="1">
          <mxGeometry width="50" height="50" relative="1" as="geometry">
            <mxPoint x="480" y="425" as="sourcePoint" />
            <mxPoint x="530" y="518" as="targetPoint" />
          </mxGeometry>
        </mxCell>
        <mxCell id="i2wbqCgmHk2RyDlgVT_B-42" value="&lt;b&gt;3.0&lt;br&gt;Payroll Reporting&lt;/b&gt;" style="rounded=1;whiteSpace=wrap;html=1;" parent="1" vertex="1">
          <mxGeometry x="660" y="160" width="120" height="50" as="geometry" />
        </mxCell>
        <mxCell id="i2wbqCgmHk2RyDlgVT_B-43" value="" style="endArrow=none;html=1;rounded=0;exitX=0.5;exitY=0;exitDx=0;exitDy=0;" parent="1" source="i2wbqCgmHk2RyDlgVT_B-42" edge="1">
          <mxGeometry width="50" height="50" relative="1" as="geometry">
            <mxPoint x="540" y="350" as="sourcePoint" />
            <mxPoint x="720" y="120" as="targetPoint" />
          </mxGeometry>
        </mxCell>
        <mxCell id="i2wbqCgmHk2RyDlgVT_B-44" value="" style="endArrow=none;html=1;rounded=0;entryX=0.337;entryY=0.987;entryDx=0;entryDy=0;entryPerimeter=0;" parent="1" target="i2wbqCgmHk2RyDlgVT_B-42" edge="1">
          <mxGeometry width="50" height="50" relative="1" as="geometry">
            <mxPoint x="700" y="500" as="sourcePoint" />
            <mxPoint x="590" y="300" as="targetPoint" />
          </mxGeometry>
        </mxCell>
        <mxCell id="i2wbqCgmHk2RyDlgVT_B-45" value="3.1&lt;br&gt;&amp;nbsp;Create Salary Archieve Report for Department" style="rounded=1;whiteSpace=wrap;html=1;" parent="1" vertex="1">
          <mxGeometry x="740" y="230" width="90" height="60" as="geometry" />
        </mxCell>
        <mxCell id="i2wbqCgmHk2RyDlgVT_B-46" value="" style="endArrow=none;html=1;rounded=0;entryX=0;entryY=0.5;entryDx=0;entryDy=0;" parent="1" target="i2wbqCgmHk2RyDlgVT_B-45" edge="1">
          <mxGeometry width="50" height="50" relative="1" as="geometry">
            <mxPoint x="700" y="260" as="sourcePoint" />
            <mxPoint x="590" y="290" as="targetPoint" />
          </mxGeometry>
        </mxCell>
        <mxCell id="i2wbqCgmHk2RyDlgVT_B-47" value="3.2&lt;br&gt;&amp;nbsp;Create Salary Archieve Report for Employee" style="rounded=1;whiteSpace=wrap;html=1;" parent="1" vertex="1">
          <mxGeometry x="740" y="310" width="90" height="60" as="geometry" />
        </mxCell>
        <mxCell id="i2wbqCgmHk2RyDlgVT_B-48" value="3.3&lt;br&gt;&amp;nbsp;Create Tax Archieve Report for Employee" style="rounded=1;whiteSpace=wrap;html=1;" parent="1" vertex="1">
          <mxGeometry x="740" y="390" width="90" height="60" as="geometry" />
        </mxCell>
        <mxCell id="i2wbqCgmHk2RyDlgVT_B-49" value="" style="endArrow=none;html=1;rounded=0;entryX=0;entryY=0.5;entryDx=0;entryDy=0;" parent="1" target="i2wbqCgmHk2RyDlgVT_B-47" edge="1">
          <mxGeometry width="50" height="50" relative="1" as="geometry">
            <mxPoint x="700" y="340" as="sourcePoint" />
            <mxPoint x="750" y="270" as="targetPoint" />
          </mxGeometry>
        </mxCell>
        <mxCell id="i2wbqCgmHk2RyDlgVT_B-50" value="" style="endArrow=none;html=1;rounded=0;entryX=0;entryY=0.5;entryDx=0;entryDy=0;" parent="1" target="i2wbqCgmHk2RyDlgVT_B-48" edge="1">
          <mxGeometry width="50" height="50" relative="1" as="geometry">
            <mxPoint x="700" y="420" as="sourcePoint" />
            <mxPoint x="750" y="350" as="targetPoint" />
          </mxGeometry>
        </mxCell>
        <mxCell id="i2wbqCgmHk2RyDlgVT_B-51" value="3.4&lt;br&gt;&amp;nbsp;Create Tax Archieve Report for Department" style="rounded=1;whiteSpace=wrap;html=1;" parent="1" vertex="1">
          <mxGeometry x="740" y="470" width="90" height="60" as="geometry" />
        </mxCell>
        <mxCell id="i2wbqCgmHk2RyDlgVT_B-52" value="" style="endArrow=none;html=1;rounded=0;entryX=0;entryY=0.5;entryDx=0;entryDy=0;" parent="1" target="i2wbqCgmHk2RyDlgVT_B-51" edge="1">
          <mxGeometry width="50" height="50" relative="1" as="geometry">
            <mxPoint x="700" y="500" as="sourcePoint" />
            <mxPoint x="750" y="430" as="targetPoint" />
          </mxGeometry>
        </mxCell>
      </root>
    </mxGraphModel>
  </diagram>
</mxfile>
